<?xml version="1.0" encoding="UTF-8"?><svg id="a" xmlns="http://www.w3.org/2000/svg" viewBox="0 0 160 160"><path d="M80,145.03s0,0,0,0c0,0,0,0-.01,0,0,0,0,0,.01,0Z" style="fill:#244f37;"/><path d="M90.15,81.67v-6.67c1.08-19.35,16.76-34.96,36.6-36.41l4.38-.02c-11.59-14-28.93-23.05-48.4-23.55.02,24.36.04,48.72.06,73.08l7.37-6.42Z" style="fill:#244f37;"/><path d="M146.03,80c0-10.51-2.51-20.42-6.93-29.21-1.64,19.52-17.86,35.17-38.11,35.54l-8.56.16-9.72,10.07c-.02,16.15-.04,32.29-.05,48.44,35.15-.88,63.37-29.63,63.37-64.99Z" style="fill:#244f37;"/><path d="M77.4,136.23c.02-5.61.05-11.27.05-12.71l-8.35-12.06-6.34-.52c-16.48-2.08-28.73-16.37-28.57-33.34.03-3.01.43-5.72.65-8.71.08-1.08,1.17-1.83,2.16-1.76l6.32.45c9.2.66,17.22,5.28,22.91,12.54,4.78,6.09,7.11,13.46,7,21.34l-.5,7.6,4.68,5.66c.02-33.24.03-66.48.05-99.72-35.2.83-63.48,29.6-63.48,64.99s28.26,64.14,63.44,64.99c0-1.17-.01-2.84-.01-4.86,0-1.79,0-3.13,0-3.91Z" style="fill:#244f37;"/><path d="M139.21,49.15l.05-7.76c0-1.26-.83-2.85-2.31-2.84l-5.82.02c3.1,3.74,5.77,7.85,7.98,12.23.05-.55.09-1.09.11-1.64Z" style="fill:#244f37;"/></svg>