<?xml version="1.0" encoding="UTF-8"?><svg id="a" xmlns="http://www.w3.org/2000/svg" viewBox="0 0 160 160"><path d="M145.03,80c0-34.81-27.36-63.24-61.75-64.95,2.66,3.2,4.94,6.59,6.68,10.4,3.46,7.16,4.17,14.93,1.3,22.58-2.55,6.68-6.44,12.26-11.29,17.15-4.16-4.24-7.45-8.75-9.9-13.94-4.21-8.46-4.16-17.88.19-26.27,1.68-3.62,3.87-6.8,6.42-9.91-34.38,1.72-61.73,30.14-61.73,64.95s27.49,63.36,61.99,64.96l-.05-20.78h6.17s.04,20.78.04,20.78c34.47-1.63,61.92-30.08,61.92-64.95ZM43.7,101.2c-2.34-5.83-3.24-11.92-3.29-18.31,5.27.26,10.13.68,14.9,2.34,9.34,2.47,16.56,8.89,19.87,17.97,2.18,5.64,3.05,11.39,3.23,17.88-15.16-.41-29.02-5.15-34.71-19.87ZM58.27,82.31c-6.9-3.17-11.87-8.56-14.55-15.67-2.35-5.82-3.23-11.93-3.29-18.26,7.99.16,15.54,1.68,22.33,5.36,5.41,3.11,9.27,7.37,11.73,13.09,2.65,6.11,3.8,12.58,3.95,19.66-7.14-.04-13.83-1.31-20.17-4.18ZM85.18,67.56c2.72-6.71,7.43-11.7,13.95-14.82,6.41-2.95,13.16-4.24,20.45-4.36-.04,6.6-1.09,12.96-3.61,19.01-2.68,6.57-7.31,11.59-13.84,14.74-6.58,3.07-13.3,4.25-20.58,4.38.14-6.55,1.12-12.94,3.63-18.95ZM115.84,102.17c-3.32,7.83-9.34,13.48-17.6,16.06-5.45,2.1-10.86,2.64-16.7,2.88.14-7.16,1.34-14.07,4.33-20.45,6.12-13.27,19.54-17.27,33.71-17.75-.09,6.72-1.11,13.18-3.75,19.26Z" style="fill:#244f37;"/><path d="M83.29,15.05c-1.06-1.27-2.17-2.52-3.34-3.75-1.14,1.25-2.22,2.5-3.25,3.75,1.09-.05,2.2-.08,3.3-.08s2.2.03,3.29.08Z" style="fill:#244f37;"/><path d="M76.96,144.96v1.23c0,1.65,2.13,2.67,3.34,2.49,1.53-.23,2.82-1.47,2.82-3.2v-.52c-1.03.05-2.07.08-3.11.08s-2.04-.03-3.04-.08Z" style="fill:#244f37;"/></svg>